<svg xmlns="http://www.w3.org/2000/svg" version="1.1" xmlns:xlink="http://www.w3.org/1999/xlink" xmlns:svgjs="http://svgjs.dev/svgjs" width="1500" height="1500" viewBox="0 0 1500 1500"><rect width="1500" height="1500" fill="#ffffff"></rect><g transform="matrix(0.6666666666666666,0,0,0.6666666666666666,249.39393939393938,598.9391198282495)"><svg viewBox="0 0 396 120" data-background-color="#ffffff" preserveAspectRatio="xMidYMid meet" height="454" width="1500" xmlns="http://www.w3.org/2000/svg" xmlns:xlink="http://www.w3.org/1999/xlink"><g id="tight-bounds" transform="matrix(1,0,0,1,0.2400000000000091,-0.10802107727954535)"><svg viewBox="0 0 395.52 120.21604215455908" height="120.21604215455908" width="395.52"><g><svg viewBox="0 0 600.9299276415139 182.64921499112148" height="120.21604215455908" width="395.52"><g transform="matrix(1,0,0,1,205.40992764151395,53.81977337576776)"><svg viewBox="0 0 395.52 75.00966823958596" height="75.00966823958596" width="395.52"><g id="textblocktransform"><svg viewBox="0 0 395.52 75.00966823958596" height="75.00966823958596" width="395.52" id="textblock"><g><svg viewBox="0 0 395.52 48.206324764890276" height="48.206324764890276" width="395.52"><g transform="matrix(1,0,0,1,0,0)"><svg width="395.52" viewBox="2.1 -39.2 403.10999999999996 48.6" height="48.206324764890276" data-palette-color="#7a26c1"><g class="wordmark-text-0" data-fill-palette-color="primary" id="text-0"><path d="M2.1-34.4L2.1-35.4Q3.15-35.35 4.85-35.3 6.55-35.25 8.2-35.25L8.2-35.25Q10.55-35.25 12.7-35.3 14.85-35.35 15.75-35.35L15.75-35.35Q21-35.35 23.65-33.15 26.3-30.95 26.3-27.5L26.3-27.5Q26.3-25.75 25.58-24.08 24.85-22.4 23.18-21.03 21.5-19.65 18.7-18.8L18.7-18.8 18.7-18.7Q22.65-18.2 24.88-16.82 27.1-15.45 28-13.6 28.9-11.75 28.9-9.7L28.9-9.7Q28.9-5.45 25.73-2.73 22.55 0 16.9 0L16.9 0Q15.8 0 13.6-0.08 11.4-0.15 8.3-0.15L8.3-0.15Q6.55-0.15 4.85-0.13 3.15-0.1 2.1 0L2.1 0 2.1-1Q3.8-1.1 4.67-1.4 5.55-1.7 5.85-2.6 6.15-3.5 6.15-5.3L6.15-5.3 6.15-30.1Q6.15-31.95 5.85-32.83 5.55-33.7 4.67-34.02 3.8-34.35 2.1-34.4L2.1-34.4ZM14.5-34.4L14.5-34.4Q12.2-34.4 11.5-33.55 10.8-32.7 10.8-30.1L10.8-30.1 10.8-5.3Q10.8-2.7 11.53-1.93 12.25-1.15 14.55-1.15L14.55-1.15Q19.45-1.15 21.68-3.43 23.9-5.7 23.9-9.9L23.9-9.9Q23.9-13.75 21.83-15.85 19.75-17.95 15-17.95L15-17.95 9.85-17.95Q9.85-17.95 9.85-18.38 9.85-18.8 9.85-18.8L9.85-18.8 14.15-18.8Q17.1-18.8 18.7-19.93 20.3-21.05 20.9-22.93 21.5-24.8 21.5-26.95L21.5-26.95Q21.5-30.65 19.88-32.52 18.25-34.4 14.5-34.4ZM44.85-26.45L44.85-26.45Q48.05-26.45 50.6-25.05 53.15-23.65 54.67-20.65 56.2-17.65 56.2-12.85L56.2-12.85Q56.2-8.05 54.67-5.08 53.15-2.1 50.6-0.7 48.05 0.7 44.85 0.7L44.85 0.7Q41.7 0.7 39.12-0.7 36.55-2.1 35.02-5.08 33.5-8.05 33.5-12.85L33.5-12.85Q33.5-17.65 35.02-20.65 36.55-23.65 39.12-25.05 41.7-26.45 44.85-26.45ZM44.85-25.45L44.85-25.45Q42-25.45 40.17-22.5 38.35-19.55 38.35-12.85L38.35-12.85Q38.35-6.15 40.17-3.23 42-0.3 44.85-0.3L44.85-0.3Q47.7-0.3 49.52-3.23 51.35-6.15 51.35-12.85L51.35-12.85Q51.35-19.55 49.52-22.5 47.7-25.45 44.85-25.45ZM72.25-26.45L72.25-26.45Q75.45-26.45 78-25.05 80.55-23.65 82.07-20.65 83.59-17.65 83.59-12.85L83.59-12.85Q83.59-8.05 82.07-5.08 80.55-2.1 78-0.7 75.45 0.7 72.25 0.7L72.25 0.7Q69.09 0.7 66.52-0.7 63.95-2.1 62.42-5.08 60.9-8.05 60.9-12.85L60.9-12.85Q60.9-17.65 62.42-20.65 63.95-23.65 66.52-25.05 69.09-26.45 72.25-26.45ZM72.25-25.45L72.25-25.45Q69.4-25.45 67.57-22.5 65.75-19.55 65.75-12.85L65.75-12.85Q65.75-6.15 67.57-3.23 69.4-0.3 72.25-0.3L72.25-0.3Q75.09-0.3 76.92-3.23 78.75-6.15 78.75-12.85L78.75-12.85Q78.75-19.55 76.92-22.5 75.09-25.45 72.25-25.45ZM95.24-39.2L95.24-39.2 95.24-4.65Q95.24-2.55 95.99-1.8 96.74-1.05 98.54-1.05L98.54-1.05 98.54 0Q97.74-0.05 96.17-0.13 94.59-0.2 92.99-0.2L92.99-0.2Q91.29-0.2 89.54-0.13 87.79-0.05 86.94 0L86.94 0 86.94-1.05Q88.99-1.05 89.87-1.8 90.74-2.55 90.74-4.65L90.74-4.65 90.74-33.2Q90.74-35.45 89.94-36.52 89.14-37.6 86.94-37.6L86.94-37.6 86.94-38.65Q88.54-38.5 90.04-38.5L90.04-38.5Q91.49-38.5 92.82-38.68 94.14-38.85 95.24-39.2ZM111.14-25.75L111.14-25.75 111.14-24.75Q109.89-24.65 108.79-24.08 107.69-23.5 106.64-22.4L106.64-22.4 99.59-15 100.29-16.4 109.59-3.65Q110.44-2.5 111.22-1.85 111.99-1.2 113.09-1.05L113.09-1.05 113.09 0Q112.54-0.05 111.37-0.13 110.19-0.2 109.04-0.2L109.04-0.2Q107.49-0.2 105.89-0.13 104.29-0.05 103.49 0L103.49 0 103.49-1.05Q104.49-1.05 104.89-1.55 105.29-2.05 104.74-2.75L104.74-2.75 98.99-11.15Q98.04-12.5 97.27-12.9 96.49-13.3 95.04-13.35L95.04-13.35 95.04-14.35Q96.64-14.55 97.64-15.03 98.64-15.5 99.54-16.45L99.54-16.45 103.24-20.3Q104.84-21.95 104.84-22.93 104.84-23.9 103.82-24.33 102.79-24.75 101.14-24.75L101.14-24.75 101.14-25.75Q102.44-25.7 104.07-25.63 105.69-25.55 106.79-25.55L106.79-25.55Q107.64-25.55 108.44-25.58 109.24-25.6 109.94-25.65 110.64-25.7 111.14-25.75Z" fill="#000000" data-fill-palette-color="primary"></path><path d="M140.39-35.4L140.39-35.4 140.39-34.4Q138.69-34.35 137.81-34.02 136.94-33.7 136.64-32.83 136.34-31.95 136.34-30.1L136.34-30.1 136.34-5.3Q136.34-3.5 136.64-2.6 136.94-1.7 137.81-1.43 138.69-1.15 140.39-1.15L140.39-1.15 144.04-1.15Q147.19-1.15 148.81-2.05 150.44-2.95 151.16-5 151.89-7.05 152.24-10.5L152.24-10.5 153.39-10.5Q153.24-8.95 153.24-6.4L153.24-6.4Q153.24-5.45 153.31-3.68 153.39-1.9 153.59 0L153.59 0Q151.04-0.1 147.84-0.13 144.64-0.15 142.14-0.15L142.14-0.15Q140.64-0.15 138.16-0.15 135.69-0.15 132.89-0.13 130.09-0.1 127.64 0L127.64 0 127.64-1Q129.34-1.1 130.21-1.4 131.09-1.7 131.39-2.6 131.69-3.5 131.69-5.3L131.69-5.3 131.69-30.1Q131.69-31.95 131.39-32.83 131.09-33.7 130.21-34.02 129.34-34.35 127.64-34.4L127.64-34.4 127.64-35.4Q128.69-35.35 130.39-35.3 132.09-35.25 134.04-35.25L134.04-35.25Q135.79-35.25 137.51-35.3 139.24-35.35 140.39-35.4ZM162.09-38.25L162.09-38.25Q163.39-38.25 164.34-37.3 165.29-36.35 165.29-35.05L165.29-35.05Q165.29-33.75 164.34-32.8 163.39-31.85 162.09-31.85L162.09-31.85Q160.79-31.85 159.84-32.8 158.89-33.75 158.89-35.05L158.89-35.05Q158.89-36.35 159.84-37.3 160.79-38.25 162.09-38.25ZM164.69-26.3L164.69-26.3 164.69-4.65Q164.69-2.55 165.56-1.8 166.44-1.05 168.49-1.05L168.49-1.05 168.49 0Q167.64-0.05 165.91-0.13 164.19-0.2 162.44-0.2L162.44-0.2Q160.74-0.2 158.99-0.13 157.24-0.05 156.39 0L156.39 0 156.39-1.05Q158.44-1.05 159.31-1.8 160.19-2.55 160.19-4.65L160.19-4.65 160.19-20.3Q160.19-22.55 159.39-23.63 158.59-24.7 156.39-24.7L156.39-24.7 156.39-25.75Q157.99-25.6 159.49-25.6L159.49-25.6Q160.94-25.6 162.26-25.78 163.59-25.95 164.69-26.3ZM185.88-26.45L185.88-26.45Q189.98-26.45 192.68-23.08 195.38-19.7 195.38-12.85L195.38-12.85Q195.38-8.35 193.86-5.33 192.33-2.3 189.78-0.8 187.23 0.7 184.23 0.7L184.23 0.7Q181.73 0.7 179.41-0.73 177.08-2.15 175.93-4.95L175.93-4.95 176.93-4.4Q178.18-2.4 180.03-1.43 181.88-0.45 183.83-0.45L183.83-0.45Q187.18-0.45 188.86-3.48 190.53-6.5 190.53-12.85L190.53-12.85Q190.53-16.9 189.88-19.6 189.23-22.3 187.88-23.63 186.53-24.95 184.43-24.95L184.43-24.95Q182.13-24.95 180.16-22.88 178.18-20.8 177.73-16.8L177.73-16.8 177.13-17.5Q177.68-21.75 180.11-24.1 182.53-26.45 185.88-26.45ZM178.08-39.15L178.08-39.15 178.08-2.6Q177.43-2.05 176.76-1.48 176.08-0.9 175.43-0.35 174.78 0.2 174.08 0.8L174.08 0.8 173.23 0.45Q173.43-0.25 173.51-0.98 173.58-1.7 173.58-2.45L173.58-2.45 173.58-33.15Q173.58-35.4 172.78-36.48 171.98-37.55 169.78-37.55L169.78-37.55 169.78-38.6Q171.38-38.45 172.88-38.45L172.88-38.45Q174.33-38.45 175.66-38.63 176.98-38.8 178.08-39.15ZM214.73-26.45L214.73-26.45Q216.08-26.45 217.11-25.9 218.13-25.35 218.71-24.48 219.28-23.6 219.28-22.5L219.28-22.5Q219.28-21.25 218.51-20.3 217.73-19.35 216.43-19.35L216.43-19.35Q215.38-19.35 214.58-20.03 213.78-20.7 213.78-21.95L213.78-21.95Q213.78-22.9 214.31-23.58 214.83-24.25 215.48-24.65L215.48-24.65Q215.13-25.15 214.43-25.15L214.43-25.15Q212.33-25.15 210.78-23.58 209.23-22 208.36-19.8 207.48-17.6 207.48-15.75L207.48-15.75 207.48-5.15Q207.48-2.7 208.91-1.88 210.33-1.05 212.78-1.05L212.78-1.05 212.78 0Q211.63-0.05 209.53-0.13 207.43-0.2 205.08-0.2L205.08-0.2Q203.38-0.2 201.71-0.13 200.03-0.05 199.18 0L199.18 0 199.18-1.05Q201.23-1.05 202.11-1.8 202.98-2.55 202.98-4.65L202.98-4.65 202.98-20.3Q202.98-22.55 202.18-23.63 201.38-24.7 199.18-24.7L199.18-24.7 199.18-25.75Q200.78-25.6 202.28-25.6L202.28-25.6Q203.73-25.6 205.06-25.78 206.38-25.95 207.48-26.3L207.48-26.3 207.48-20.05Q208.03-21.5 209.06-22.98 210.08-24.45 211.53-25.45 212.98-26.45 214.73-26.45ZM228.13 0.35L228.13 0.35Q224.88 0.35 223.4-1.28 221.93-2.9 221.93-5.6L221.93-5.6Q221.93-7.7 222.95-9.08 223.98-10.45 225.58-11.33 227.18-12.2 228.95-12.83 230.73-13.45 232.33-14.05 233.93-14.65 234.95-15.4 235.98-16.15 235.98-17.3L235.98-17.3 235.98-20.4Q235.98-22.5 235.35-23.6 234.73-24.7 233.68-25.08 232.63-25.45 231.33-25.45L231.33-25.45Q230.08-25.45 228.65-25.1 227.23-24.75 226.38-23.65L226.38-23.65Q227.33-23.45 228.03-22.65 228.73-21.85 228.73-20.6L228.73-20.6Q228.73-19.35 227.93-18.63 227.13-17.9 225.88-17.9L225.88-17.9Q224.43-17.9 223.75-18.82 223.08-19.75 223.08-20.9L223.08-20.9Q223.08-22.2 223.73-23 224.38-23.8 225.38-24.5L225.38-24.5Q226.53-25.3 228.35-25.88 230.18-26.45 232.48-26.45L232.48-26.45Q234.53-26.45 235.98-25.98 237.43-25.5 238.38-24.6L238.38-24.6Q239.68-23.4 240.08-21.68 240.48-19.95 240.48-17.55L240.48-17.55 240.48-3.65Q240.48-2.45 240.83-1.88 241.18-1.3 242.03-1.3L242.03-1.3Q242.73-1.3 243.25-1.6 243.78-1.9 244.28-2.35L244.28-2.35 244.83-1.5Q243.78-0.7 242.83-0.18 241.88 0.35 240.28 0.35L240.28 0.35Q237.68 0.35 236.83-1 235.98-2.35 235.98-4.1L235.98-4.1Q234.38-1.45 232.35-0.55 230.33 0.35 228.13 0.35ZM230.33-1.65L230.33-1.65Q231.83-1.65 233.28-2.53 234.73-3.4 235.98-5.45L235.98-5.45 235.98-15.25Q235.23-14.15 233.65-13.5 232.08-12.85 230.4-12.08 228.73-11.3 227.53-9.98 226.33-8.65 226.33-6.2L226.33-6.2Q226.33-3.9 227.48-2.78 228.63-1.65 230.33-1.65ZM261.88-26.45L261.88-26.45Q263.23-26.45 264.25-25.9 265.28-25.35 265.85-24.48 266.43-23.6 266.43-22.5L266.43-22.5Q266.43-21.25 265.65-20.3 264.88-19.35 263.58-19.35L263.58-19.35Q262.53-19.35 261.73-20.03 260.93-20.7 260.93-21.95L260.93-21.95Q260.93-22.9 261.45-23.58 261.98-24.25 262.63-24.65L262.63-24.65Q262.28-25.15 261.58-25.15L261.58-25.15Q259.48-25.15 257.93-23.58 256.38-22 255.5-19.8 254.63-17.6 254.63-15.75L254.63-15.75 254.63-5.15Q254.63-2.7 256.05-1.88 257.48-1.05 259.93-1.05L259.93-1.05 259.93 0Q258.78-0.05 256.68-0.13 254.58-0.2 252.23-0.2L252.23-0.2Q250.53-0.2 248.85-0.13 247.18-0.05 246.33 0L246.33 0 246.33-1.05Q248.38-1.05 249.25-1.8 250.13-2.55 250.13-4.65L250.13-4.65 250.13-20.3Q250.13-22.55 249.33-23.63 248.53-24.7 246.33-24.7L246.33-24.7 246.33-25.75Q247.93-25.6 249.43-25.6L249.43-25.6Q250.88-25.6 252.2-25.78 253.53-25.95 254.63-26.3L254.63-26.3 254.63-20.05Q255.18-21.5 256.2-22.98 257.23-24.45 258.68-25.45 260.13-26.45 261.88-26.45ZM291.82-25.75L291.82-25.75 291.82-24.75Q290.87-24.65 290.07-23.9 289.27-23.15 288.57-21.25L288.57-21.25 280.37 0.25 279.52 0.25 270.32-21.9Q269.37-23.85 268.45-24.28 267.52-24.7 266.92-24.7L266.92-24.7 266.92-25.75Q268.02-25.6 269.22-25.53 270.42-25.45 271.82-25.45L271.82-25.45Q273.37-25.45 275.1-25.55 276.82-25.65 278.32-25.75L278.32-25.75 278.32-24.7Q277.07-24.7 276.1-24.53 275.12-24.35 274.87-23.48 274.62-22.6 275.47-20.5L275.47-20.5 281.62-5.25 281.32-5.15 287.02-20.05Q287.97-22.55 287.22-23.55 286.47-24.55 283.82-24.75L283.82-24.75 283.82-25.75Q285.12-25.7 286-25.65 286.87-25.6 288.02-25.6L288.02-25.6Q289.17-25.6 290.1-25.65 291.02-25.7 291.82-25.75ZM279.42-0.15L280.37 0.25 278.67 4.6Q277.72 7.05 276.52 8.1L276.52 8.1Q275.72 8.85 274.62 9.13 273.52 9.4 272.62 9.4L272.62 9.4Q271.67 9.4 270.9 9.05 270.12 8.7 269.67 8.03 269.22 7.35 269.22 6.4L269.22 6.4Q269.22 5.2 269.92 4.48 270.62 3.75 271.87 3.75L271.87 3.75Q272.92 3.75 273.67 4.35 274.42 4.95 274.42 6.1L274.42 6.1Q274.42 6.95 274.02 7.5 273.62 8.05 273.07 8.35L273.07 8.35Q273.17 8.4 273.25 8.4 273.32 8.4 273.37 8.4L273.37 8.4Q274.72 8.4 275.77 7.48 276.82 6.55 277.62 4.5L277.62 4.5 279.42-0.15Z" fill="#000000" data-fill-palette-color="accent"></path><path d="M349.62-35.4L349.62-35.4 349.62-34.4Q348.67-34.2 347.52-33.27 346.37-32.35 345.67-30.05L345.67-30.05 336.22 0.25Q336.12 0.25 336.02 0.25 335.92 0.25 335.82 0.25L335.82 0.25Q335.72 0.25 335.62 0.25 335.52 0.25 335.42 0.25L335.42 0.25 324.82-31.2Q324.17-33.15 323.37-33.75 322.57-34.35 321.87-34.4L321.87-34.4 321.87-35.4Q322.77-35.35 324.12-35.3 325.47-35.25 326.72-35.25L326.72-35.25Q328.67-35.25 330.37-35.3 332.07-35.35 333.12-35.4L333.12-35.4 333.12-34.4Q331.62-34.35 330.74-34.1 329.87-33.85 329.74-33 329.62-32.15 330.22-30.2L330.22-30.2 337.67-7.15 336.97-6.55 343.57-27.3Q344.47-30.05 344.39-31.58 344.32-33.1 343.27-33.73 342.22-34.35 340.12-34.4L340.12-34.4 340.12-35.4Q341.57-35.35 343.07-35.3 344.57-35.25 345.87-35.25L345.87-35.25Q347.17-35.25 348.02-35.3 348.87-35.35 349.62-35.4ZM314.67-35.4L314.67-35.4 314.67-34.4Q313.37-34.3 312.79-33.9 312.22-33.5 312.24-32.63 312.27-31.75 312.77-30.2L312.77-30.2 320.52-6.55 319.27-5.3 326.27-27.65 327.02-26.45 318.77 0.25Q318.67 0.25 318.57 0.25 318.47 0.25 318.37 0.25L318.37 0.25Q318.27 0.25 318.17 0.25 318.07 0.25 317.97 0.25L317.97 0.25 307.37-31.2Q306.72-33.15 305.72-33.75 304.72-34.35 303.92-34.4L303.92-34.4 303.92-35.4Q304.92-35.35 306.39-35.3 307.87-35.25 309.27-35.25L309.27-35.25Q310.92-35.25 312.34-35.3 313.77-35.35 314.67-35.4ZM356.67-38.25L356.67-38.25Q357.97-38.25 358.92-37.3 359.87-36.35 359.87-35.05L359.87-35.05Q359.87-33.75 358.92-32.8 357.97-31.85 356.67-31.85L356.67-31.85Q355.37-31.85 354.42-32.8 353.47-33.75 353.47-35.05L353.47-35.05Q353.47-36.35 354.42-37.3 355.37-38.25 356.67-38.25ZM359.27-26.3L359.27-26.3 359.27-4.65Q359.27-2.55 360.14-1.8 361.02-1.05 363.07-1.05L363.07-1.05 363.07 0Q362.22-0.05 360.49-0.13 358.77-0.2 357.02-0.2L357.02-0.2Q355.32-0.2 353.57-0.13 351.82-0.05 350.97 0L350.97 0 350.97-1.05Q353.02-1.05 353.89-1.8 354.77-2.55 354.77-4.65L354.77-4.65 354.77-20.3Q354.77-22.55 353.97-23.63 353.17-24.7 350.97-24.7L350.97-24.7 350.97-25.75Q352.57-25.6 354.07-25.6L354.07-25.6Q355.52-25.6 356.84-25.78 358.17-25.95 359.27-26.3ZM373.46-39.2L373.46-39.2 373.46-4.65Q373.46-2.55 374.21-1.8 374.96-1.05 376.76-1.05L376.76-1.05 376.76 0Q375.96-0.05 374.39-0.13 372.81-0.2 371.21-0.2L371.21-0.2Q369.51-0.2 367.76-0.13 366.01-0.05 365.16 0L365.16 0 365.16-1.05Q367.21-1.05 368.09-1.8 368.96-2.55 368.96-4.65L368.96-4.65 368.96-33.2Q368.96-35.45 368.16-36.52 367.36-37.6 365.16-37.6L365.16-37.6 365.16-38.65Q366.76-38.5 368.26-38.5L368.26-38.5Q369.71-38.5 371.04-38.68 372.36-38.85 373.46-39.2ZM389.36-25.75L389.36-25.75 389.36-24.75Q388.11-24.65 387.01-24.08 385.91-23.5 384.86-22.4L384.86-22.4 377.81-15 378.51-16.4 387.81-3.65Q388.66-2.5 389.44-1.85 390.21-1.2 391.31-1.05L391.31-1.05 391.31 0Q390.76-0.05 389.59-0.13 388.41-0.2 387.26-0.2L387.26-0.2Q385.71-0.2 384.11-0.13 382.51-0.05 381.71 0L381.71 0 381.71-1.05Q382.71-1.05 383.11-1.55 383.51-2.05 382.96-2.75L382.96-2.75 377.21-11.15Q376.26-12.5 375.49-12.9 374.71-13.3 373.26-13.35L373.26-13.35 373.26-14.35Q374.86-14.55 375.86-15.03 376.86-15.5 377.76-16.45L377.76-16.45 381.46-20.3Q383.06-21.95 383.06-22.93 383.06-23.9 382.04-24.33 381.01-24.75 379.36-24.75L379.36-24.75 379.36-25.75Q380.66-25.7 382.29-25.63 383.91-25.55 385.01-25.55L385.01-25.55Q385.86-25.55 386.66-25.58 387.46-25.6 388.16-25.65 388.86-25.7 389.36-25.75ZM398.81-38.25L398.81-38.25Q400.11-38.25 401.06-37.3 402.01-36.35 402.01-35.05L402.01-35.05Q402.01-33.75 401.06-32.8 400.11-31.85 398.81-31.85L398.81-31.85Q397.51-31.85 396.56-32.8 395.61-33.75 395.61-35.05L395.61-35.05Q395.61-36.35 396.56-37.3 397.51-38.25 398.81-38.25ZM401.41-26.3L401.41-26.3 401.41-4.65Q401.41-2.55 402.29-1.8 403.16-1.05 405.21-1.05L405.21-1.05 405.21 0Q404.36-0.05 402.64-0.13 400.91-0.2 399.16-0.2L399.16-0.2Q397.46-0.2 395.71-0.13 393.96-0.05 393.11 0L393.11 0 393.11-1.05Q395.16-1.05 396.04-1.8 396.91-2.55 396.91-4.65L396.91-4.65 396.91-20.3Q396.91-22.55 396.11-23.63 395.31-24.7 393.11-24.7L393.11-24.7 393.11-25.75Q394.71-25.6 396.21-25.6L396.21-25.6Q397.66-25.6 398.99-25.78 400.31-25.95 401.41-26.3Z" fill="#000000" data-fill-palette-color="primary"></path></g></svg></g></svg></g><g transform="matrix(1,0,0,1,0,59.586681090086515)"><svg viewBox="0 0 232.20979199999996 15.42298714949945" height="15.42298714949945" width="232.20979199999996"><g transform="matrix(1,0,0,1,0,0)"><svg width="232.20979199999996" viewBox="1.98 -38.09 733.98 48.760000000000005" height="15.42298714949945" data-palette-color="#7a26c1"><path d="M27.59 0L1.98 0 1.98-3.08 5.96-3.76 5.96-31.76 1.98-32.45 1.98-35.55 5.96-35.55 10.77-35.55 14.75-35.55 14.75-32.45 10.77-31.76 10.77-3.69 23.34-3.69 23.9-9.3 27.59-9.3 27.59 0ZM40.38 0.51L40.38 0.51Q36.25 0.51 34.1-1.5 31.96-3.52 31.96-7.18L31.96-7.18Q31.96-9.69 33.33-11.56 34.71-13.43 37.33-14.47 39.94-15.5 43.58-15.5L43.58-15.5 48.29-15.5 48.29-18.09Q48.29-20.48 46.84-21.8 45.38-23.12 42.75-23.12L42.75-23.12Q41.09-23.12 39.87-22.72 38.64-22.31 37.64-21.61L37.64-21.61 37.13-17.92 33.42-17.92 33.42-23.97Q35.2-25.42 37.57-26.16 39.94-26.9 42.82-26.9L42.82-26.9Q47.63-26.9 50.36-24.61 53.1-22.31 53.1-18.04L53.1-18.04 53.1-5.32Q53.1-4.81 53.11-4.32 53.12-3.83 53.17-3.34L53.17-3.34 55.73-3.08 55.73 0 48.83 0Q48.61-1.07 48.48-1.93 48.36-2.78 48.31-3.64L48.31-3.64Q46.92-1.86 44.83-0.67 42.75 0.51 40.38 0.51ZM41.09-3.52L41.09-3.52Q43.48-3.52 45.46-4.66 47.43-5.81 48.29-7.42L48.29-7.42 48.29-12.21 43.41-12.21Q40.09-12.21 38.43-10.62 36.77-9.03 36.77-7.08L36.77-7.08Q36.77-5.35 37.84-4.43 38.91-3.52 41.09-3.52ZM72.19 0L59.42 0 59.42-3.08 63.4-3.76 63.4-22.63 59.42-23.32 59.42-26.42 67.7-26.42 68.11-23.05 68.16-22.58Q69.28-24.61 70.93-25.76 72.58-26.9 74.7-26.9L74.7-26.9Q75.46-26.9 76.25-26.77 77.05-26.64 77.39-26.51L77.39-26.51 76.75-22.05 73.41-22.24Q71.5-22.36 70.21-21.37 68.92-20.39 68.21-18.73L68.21-18.73 68.21-3.76 72.19-3.08 72.19 0ZM91.45 10.67L91.45 10.67Q89.54 10.67 87.32 10.14 85.1 9.62 83.42 8.72L83.42 8.72 84.66 4.98Q86 5.69 87.83 6.15 89.67 6.62 91.4 6.62L91.4 6.62Q94.62 6.62 96.12 4.81 97.62 3 97.62-0.34L97.62-0.34 97.62-2.86Q96.33-1.2 94.52-0.34 92.72 0.51 90.37 0.51L90.37 0.51Q87.15 0.51 84.81-1.09 82.46-2.69 81.21-5.55 79.95-8.42 79.95-12.21L79.95-12.21 79.95-12.72Q79.95-16.97 81.21-20.17 82.46-23.36 84.81-25.13 87.15-26.9 90.42-26.9L90.42-26.9Q92.91-26.9 94.79-25.93 96.67-24.95 97.94-23.1L97.94-23.1 98.38-26.42 102.43-26.42 102.43-0.34Q102.43 3.08 101.15 5.54 99.87 8.01 97.42 9.34 94.96 10.67 91.45 10.67ZM91.57-3.39L91.57-3.39Q93.74-3.39 95.21-4.38 96.67-5.37 97.62-7.18L97.62-7.18 97.62-19.34Q96.7-21.02 95.21-22.01 93.72-23 91.62-23L91.62-23Q89.32-23 87.8-21.68 86.27-20.36 85.51-18.05 84.76-15.75 84.76-12.72L84.76-12.72 84.76-12.21Q84.76-8.23 86.44-5.81 88.13-3.39 91.57-3.39ZM105.71-23.34L101.7-22.49 99.82-26.42 105.71-26.42 105.71-23.34ZM120.01 0.51L120.01 0.51Q116.35 0.51 113.64-1.16 110.93-2.83 109.45-5.81 107.97-8.79 107.97-12.7L107.97-12.7 107.97-13.77Q107.97-17.53 109.52-20.5 111.07-23.46 113.65-25.18 116.23-26.9 119.28-26.9L119.28-26.9Q122.84-26.9 125.25-25.44 127.65-23.97 128.87-21.33 130.09-18.68 130.09-15.09L130.09-15.09 130.09-12.08 112.95-12.08 112.88-11.96Q112.93-9.42 113.77-7.46 114.61-5.49 116.2-4.37 117.79-3.25 120.01-3.25L120.01-3.25Q122.45-3.25 124.29-3.94 126.14-4.64 127.48-5.86L127.48-5.86 129.36-2.73Q127.94-1.37 125.61-0.43 123.28 0.51 120.01 0.51ZM113.05-15.97L113.1-15.84 125.28-15.84 125.28-16.48Q125.28-18.38 124.61-19.89 123.94-21.39 122.61-22.25 121.28-23.12 119.28-23.12L119.28-23.12Q117.67-23.12 116.35-22.18 115.03-21.24 114.17-19.63 113.32-18.02 113.05-15.97L113.05-15.97ZM144.64 0.51L144.64 0.51Q141.98 0.51 139.66-0.02 137.34-0.56 134.73-1.68L134.73-1.68 134.68-7.96 138.32-7.96 139.22-4.17Q140.59-3.61 141.87-3.36 143.15-3.1 144.64-3.1L144.64-3.1Q147.57-3.1 148.84-4.22 150.11-5.35 150.11-7.01L150.11-7.01Q150.11-8.57 148.83-9.66 147.55-10.74 144.18-11.5L144.18-11.5Q139.39-12.6 137.13-14.44 134.88-16.28 134.88-19.36L134.88-19.36Q134.88-21.51 136.12-23.21 137.37-24.9 139.59-25.9 141.81-26.9 144.76-26.9L144.76-26.9Q147.77-26.9 149.9-26.22 152.04-25.54 153.63-24.39L153.63-24.39 153.87-18.36 150.26-18.36 149.47-21.88Q148.62-22.51 147.45-22.85 146.28-23.19 144.76-23.19L144.76-23.19Q142.52-23.19 141.11-22.14 139.71-21.09 139.71-19.51L139.71-19.51Q139.71-18.58 140.11-17.9 140.51-17.21 141.66-16.66 142.81-16.11 145.03-15.58L145.03-15.58Q150.55-14.28 152.73-12.28 154.92-10.28 154.92-7.35L154.92-7.35Q154.92-4 152.44-1.75 149.96 0.51 144.64 0.51ZM168.22 0.42L168.22 0.42Q165.29 0.42 163.57-1.31 161.85-3.03 161.85-6.81L161.85-6.81 161.85-22.85 157.68-22.85 157.68-26.42 161.85-26.42 161.85-32.79 166.66-32.79 166.66-26.42 172.4-26.42 172.4-22.85 166.66-22.85 166.66-6.81Q166.66-4.91 167.42-4 168.17-3.1 169.44-3.1L169.44-3.1Q170.3-3.1 171.35-3.26 172.4-3.42 172.98-3.54L172.98-3.54 173.64-0.39Q172.59-0.07 171.07 0.17 169.54 0.42 168.22 0.42ZM203.18 0.51L203.18 0.51Q200.59 0.51 198.69-0.48 196.78-1.46 195.51-3.39L195.51-3.39 195.07 0 190.92 0 190.92-34.3 186.94-34.99 186.94-38.09 195.73-38.09 195.73-23.29Q196.98-25.05 198.82-25.98 200.66-26.9 203.13-26.9L203.13-26.9Q206.4-26.9 208.71-25.13 211.02-23.36 212.25-20.17 213.48-16.97 213.48-12.72L213.48-12.72 213.48-12.21Q213.48-8.4 212.25-5.54 211.02-2.69 208.71-1.09 206.4 0.51 203.18 0.51ZM201.96-3.39L201.96-3.39Q205.35-3.39 207-5.81 208.65-8.23 208.65-12.21L208.65-12.21 208.65-12.72Q208.65-15.77 207.91-18.08 207.18-20.39 205.69-21.69 204.2-23 201.91-23L201.91-23Q199.69-23 198.16-21.92 196.64-20.85 195.73-19.04L195.73-19.04 195.73-7.37Q196.64-5.54 198.19-4.47 199.74-3.39 201.96-3.39ZM230.01 0.51L230.01 0.51Q226.34 0.51 223.7-1.21 221.05-2.93 219.61-5.97 218.17-9.01 218.17-12.92L218.17-12.92 218.17-13.45Q218.17-17.36 219.61-20.4 221.05-23.44 223.7-25.17 226.34-26.9 229.96-26.9L229.96-26.9Q233.62-26.9 236.27-25.17 238.92-23.44 240.36-20.41 241.8-17.38 241.8-13.45L241.8-13.45 241.8-12.92Q241.8-8.98 240.36-5.94 238.92-2.91 236.28-1.2 233.64 0.51 230.01 0.51ZM230.01-3.25L230.01-3.25Q232.3-3.25 233.85-4.5 235.4-5.76 236.2-7.95 236.99-10.13 236.99-12.92L236.99-12.92 236.99-13.45Q236.99-16.24 236.2-18.42 235.4-20.61 233.84-21.86 232.28-23.12 229.96-23.12L229.96-23.12Q227.66-23.12 226.1-21.86 224.54-20.61 223.76-18.42 222.98-16.24 222.98-13.45L222.98-13.45 222.98-12.92Q222.98-10.13 223.76-7.95 224.54-5.76 226.11-4.5 227.69-3.25 230.01-3.25ZM258.3 0.51L258.3 0.51Q254.64 0.51 251.99-1.21 249.34-2.93 247.9-5.97 246.46-9.01 246.46-12.92L246.46-12.92 246.46-13.45Q246.46-17.36 247.9-20.4 249.34-23.44 251.99-25.17 254.64-26.9 258.25-26.9L258.25-26.9Q261.91-26.9 264.56-25.17 267.21-23.44 268.65-20.41 270.09-17.38 270.09-13.45L270.09-13.45 270.09-12.92Q270.09-8.98 268.65-5.94 267.21-2.91 264.57-1.2 261.94 0.51 258.3 0.51ZM258.3-3.25L258.3-3.25Q260.6-3.25 262.15-4.5 263.7-5.76 264.49-7.95 265.28-10.13 265.28-12.92L265.28-12.92 265.28-13.45Q265.28-16.24 264.49-18.42 263.7-20.61 262.13-21.86 260.57-23.12 258.25-23.12L258.25-23.12Q255.96-23.12 254.39-21.86 252.83-20.61 252.05-18.42 251.27-16.24 251.27-13.45L251.27-13.45 251.27-12.92Q251.27-10.13 252.05-7.95 252.83-5.76 254.41-4.5 255.98-3.25 258.3-3.25ZM285.84 0L273.07 0 273.07-3.08 277.05-3.76 277.05-34.3 273.07-34.99 273.07-38.09 281.86-38.09 281.86-3.76 285.84-3.08 285.84 0ZM301.97 0L290.04 0 290.04-3.08 292.72-3.39 292.65-3.49 285.01-13.35 287.5-17.19 298.17-3.66 301.97-3.08 301.97 0ZM296.48-22.68L281.52-7.64 279.73-11.43 291.21-22.85 291.33-23 288.5-23.32 288.5-26.42 299.87-26.42 299.87-23.32 296.48-22.68ZM329.09 0.51L329.09 0.51Q325.5 0.51 322.84-1.16 320.18-2.83 318.72-5.81 317.25-8.79 317.25-12.7L317.25-12.7 317.25-13.72Q317.25-17.48 318.67-20.46 320.08-23.44 322.75-25.17 325.41-26.9 329.09-26.9L329.09-26.9Q332.29-26.9 334.7-25.85 337.1-24.8 338.74-22.97L338.74-22.97 338.86-16.63 335.1-16.63 334.27-21.24Q333.44-22.09 332.19-22.61 330.95-23.12 329.26-23.12L329.26-23.12Q327.12-23.12 325.49-21.85 323.87-20.58 322.97-18.46 322.06-16.33 322.06-13.72L322.06-13.72 322.06-12.7Q322.06-9.81 322.9-7.69 323.75-5.57 325.32-4.41 326.9-3.25 329.07-3.25L329.07-3.25Q331.51-3.25 333.12-4.59 334.73-5.93 335.1-8.28L335.1-8.28 339.42-8.28 339.47-8.13Q339.35-5.86 338.13-3.88 336.91-1.9 334.65-0.7 332.39 0.51 329.09 0.51ZM355.73 0L342.96 0 342.96-3.08 346.94-3.76 346.94-34.3 342.96-34.99 342.96-38.09 351.75-38.09 351.75-3.76 355.73-3.08 355.73 0ZM370.76 0.51L370.76 0.51Q366.47 0.51 364.05-2.25 361.63-5 361.63-10.84L361.63-10.84 361.63-22.63 358.61-23.32 358.61-26.42 361.63-26.42 366.44-26.42 366.44-10.79Q366.44-6.57 367.69-4.98 368.93-3.39 371.57-3.39L371.57-3.39Q374.13-3.39 375.8-4.43 377.48-5.47 378.33-7.37L378.33-7.37 378.33-22.63 374.79-23.32 374.79-26.42 378.33-26.42 383.14-26.42 383.14-3.76 386.17-3.08 386.17 0 378.82 0 378.5-3.91Q377.26-1.78 375.29-0.63 373.33 0.51 370.76 0.51ZM403.57 0.51L403.57 0.51Q400.99 0.51 399.08-0.48 397.18-1.46 395.91-3.39L395.91-3.39 395.47 0 391.32 0 391.32-34.3 387.34-34.99 387.34-38.09 396.13-38.09 396.13-23.29Q397.37-25.05 399.22-25.98 401.06-26.9 403.52-26.9L403.52-26.9Q406.8-26.9 409.1-25.13 411.41-23.36 412.64-20.17 413.88-16.97 413.88-12.72L413.88-12.72 413.88-12.21Q413.88-8.4 412.64-5.54 411.41-2.69 409.1-1.09 406.8 0.51 403.57 0.51ZM402.35-3.39L402.35-3.39Q405.75-3.39 407.39-5.81 409.04-8.23 409.04-12.21L409.04-12.21 409.04-12.72Q409.04-15.77 408.31-18.08 407.58-20.39 406.09-21.69 404.6-23 402.3-23L402.3-23Q400.08-23 398.56-21.92 397.03-20.85 396.13-19.04L396.13-19.04 396.13-7.37Q397.03-5.54 398.58-4.47 400.13-3.39 402.35-3.39ZM441.85 0.51L441.85 0.51Q438.19 0.51 435.54-1.21 432.89-2.93 431.45-5.97 430.01-9.01 430.01-12.92L430.01-12.92 430.01-13.45Q430.01-17.36 431.45-20.4 432.89-23.44 435.54-25.17 438.19-26.9 441.8-26.9L441.8-26.9Q445.46-26.9 448.11-25.17 450.76-23.44 452.2-20.41 453.64-17.38 453.64-13.45L453.64-13.45 453.64-12.92Q453.64-8.98 452.2-5.94 450.76-2.91 448.12-1.2 445.49 0.51 441.85 0.51ZM441.85-3.25L441.85-3.25Q444.14-3.25 445.69-4.5 447.25-5.76 448.04-7.95 448.83-10.13 448.83-12.92L448.83-12.92 448.83-13.45Q448.83-16.24 448.04-18.42 447.25-20.61 445.68-21.86 444.12-23.12 441.8-23.12L441.8-23.12Q439.51-23.12 437.94-21.86 436.38-20.61 435.6-18.42 434.82-16.24 434.82-13.45L434.82-13.45 434.82-12.92Q434.82-10.13 435.6-7.95 436.38-5.76 437.96-4.5 439.53-3.25 441.85-3.25ZM470.12 0L457.35 0 457.35-3.08 461.33-3.76 461.33-22.63 457.35-23.32 457.35-26.42 465.63-26.42 465.97-22.49Q467.29-24.58 469.28-25.74 471.27-26.9 473.81-26.9L473.81-26.9Q478.08-26.9 480.42-24.4 482.77-21.9 482.77-16.67L482.77-16.67 482.77-3.76 486.74-3.08 486.74 0 473.98 0 473.98-3.08 477.96-3.76 477.96-16.58Q477.96-20.07 476.58-21.53 475.2-23 472.36-23L472.36-23Q470.29-23 468.69-22 467.09-21 466.14-19.26L466.14-19.26 466.14-3.76 470.12-3.08 470.12 0ZM511.89 0.42L511.89 0.42Q508.96 0.42 507.24-1.31 505.51-3.03 505.51-6.81L505.51-6.81 505.51-22.85 501.34-22.85 501.34-26.42 505.51-26.42 505.51-32.79 510.32-32.79 510.32-26.42 516.06-26.42 516.06-22.85 510.32-22.85 510.32-6.81Q510.32-4.91 511.08-4 511.84-3.1 513.11-3.1L513.11-3.1Q513.96-3.1 515.01-3.26 516.06-3.42 516.65-3.54L516.65-3.54 517.31-0.39Q516.26-0.07 514.73 0.17 513.2 0.42 511.89 0.42ZM532.54 0L519.77 0 519.77-3.08 523.75-3.76 523.75-34.3 519.77-34.99 519.77-38.09 528.56-38.09 528.56-22.9Q529.93-24.8 531.9-25.85 533.88-26.9 536.3-26.9L536.3-26.9Q540.55-26.9 542.89-24.37 545.23-21.83 545.23-16.55L545.23-16.55 545.23-3.76 549.21-3.08 549.21 0 536.44 0 536.44-3.08 540.42-3.76 540.42-16.6Q540.42-19.87 539.02-21.44 537.62-23 534.83-23L534.83-23Q532.86-23 531.23-22.06 529.61-21.12 528.56-19.51L528.56-19.51 528.56-3.76 532.54-3.08 532.54 0ZM564.15 0.51L564.15 0.51Q560.49 0.51 557.78-1.16 555.07-2.83 553.59-5.81 552.12-8.79 552.12-12.7L552.12-12.7 552.12-13.77Q552.12-17.53 553.67-20.5 555.22-23.46 557.79-25.18 560.37-26.9 563.42-26.9L563.42-26.9Q566.98-26.9 569.39-25.44 571.79-23.97 573.01-21.33 574.23-18.68 574.23-15.09L574.23-15.09 574.23-12.08 557.1-12.08 557.02-11.96Q557.07-9.42 557.91-7.46 558.76-5.49 560.34-4.37 561.93-3.25 564.15-3.25L564.15-3.25Q566.59-3.25 568.44-3.94 570.28-4.64 571.62-5.86L571.62-5.86 573.5-2.73Q572.09-1.37 569.75-0.43 567.42 0.51 564.15 0.51ZM557.19-15.97L557.24-15.84 569.42-15.84 569.42-16.48Q569.42-18.38 568.75-19.89 568.08-21.39 566.75-22.25 565.42-23.12 563.42-23.12L563.42-23.12Q561.81-23.12 560.49-22.18 559.17-21.24 558.32-19.63 557.46-18.02 557.19-15.97L557.19-15.97ZM602.4 10.16L589.66 10.16 589.66 7.06 593.39 6.37 593.39-22.63 589.42-23.32 589.42-26.42 597.52-26.42 597.96-23.19Q599.28-25 601.17-25.95 603.06-26.9 605.55-26.9L605.55-26.9Q608.82-26.9 611.14-25.13 613.46-23.36 614.68-20.18 615.9-16.99 615.9-12.72L615.9-12.72 615.9-12.21Q615.9-8.4 614.67-5.54 613.44-2.69 611.14-1.09 608.85 0.51 605.63 0.51L605.63 0.51Q603.18 0.51 601.34-0.31 599.5-1.12 598.2-2.73L598.2-2.73 598.2 6.37 602.4 7.06 602.4 10.16ZM604.14-3.25L604.14-3.25Q607.55-3.25 609.31-5.74 611.07-8.23 611.07-12.21L611.07-12.21 611.07-12.72Q611.07-15.75 610.29-18.05 609.51-20.36 607.96-21.68 606.41-23 604.09-23L604.09-23Q602.04-23 600.57-22.07 599.11-21.14 598.2-19.53L598.2-19.53 598.2-6.67Q599.11-5.03 600.56-4.14 602.01-3.25 604.14-3.25ZM631.89 0L619.12 0 619.12-3.08 623.1-3.76 623.1-34.3 619.12-34.99 619.12-38.09 627.91-38.09 627.91-3.76 631.89-3.08 631.89 0ZM643.85 0.51L643.85 0.51Q639.73 0.51 637.58-1.5 635.43-3.52 635.43-7.18L635.43-7.18Q635.43-9.69 636.81-11.56 638.19-13.43 640.8-14.47 643.41-15.5 647.05-15.5L647.05-15.5 651.76-15.5 651.76-18.09Q651.76-20.48 650.31-21.8 648.86-23.12 646.22-23.12L646.22-23.12Q644.56-23.12 643.34-22.72 642.12-22.31 641.12-21.61L641.12-21.61 640.61-17.92 636.9-17.92 636.9-23.97Q638.68-25.42 641.05-26.16 643.41-26.9 646.29-26.9L646.29-26.9Q651.1-26.9 653.84-24.61 656.57-22.31 656.57-18.04L656.57-18.04 656.57-5.32Q656.57-4.81 656.59-4.32 656.6-3.83 656.65-3.34L656.65-3.34 659.21-3.08 659.21 0 652.3 0Q652.08-1.07 651.96-1.93 651.84-2.78 651.79-3.64L651.79-3.64Q650.4-1.86 648.31-0.67 646.22 0.51 643.85 0.51ZM644.56-3.52L644.56-3.52Q646.95-3.52 648.93-4.66 650.91-5.81 651.76-7.42L651.76-7.42 651.76-12.21 646.88-12.21Q643.56-12.21 641.9-10.62 640.24-9.03 640.24-7.08L640.24-7.08Q640.24-5.35 641.31-4.43 642.39-3.52 644.56-3.52ZM675.71 0L662.94 0 662.94-3.08 666.92-3.76 666.92-22.63 662.94-23.32 662.94-26.42 671.22-26.42 671.56-22.49Q672.88-24.58 674.87-25.74 676.86-26.9 679.4-26.9L679.4-26.9Q683.67-26.9 686.01-24.4 688.36-21.9 688.36-16.67L688.36-16.67 688.36-3.76 692.34-3.08 692.34 0 679.57 0 679.57-3.08 683.55-3.76 683.55-16.58Q683.55-20.07 682.17-21.53 680.79-23 677.96-23L677.96-23Q675.88-23 674.28-22 672.68-21 671.73-19.26L671.73-19.26 671.73-3.76 675.71-3.08 675.71 0ZM707.4 0.51L707.4 0.51Q703.74 0.51 701.03-1.16 698.32-2.83 696.84-5.81 695.36-8.79 695.36-12.7L695.36-12.7 695.36-13.77Q695.36-17.53 696.91-20.5 698.46-23.46 701.04-25.18 703.61-26.9 706.67-26.9L706.67-26.9Q710.23-26.9 712.64-25.44 715.04-23.97 716.26-21.33 717.48-18.68 717.48-15.09L717.48-15.09 717.48-12.08 700.34-12.08 700.27-11.96Q700.32-9.42 701.16-7.46 702-5.49 703.59-4.37 705.18-3.25 707.4-3.25L707.4-3.25Q709.84-3.25 711.68-3.94 713.53-4.64 714.87-5.86L714.87-5.86 716.75-2.73Q715.33-1.37 713-0.43 710.67 0.51 707.4 0.51ZM700.44-15.97L700.49-15.84 712.67-15.84 712.67-16.48Q712.67-18.38 712-19.89 711.33-21.39 710-22.25 708.67-23.12 706.67-23.12L706.67-23.12Q705.05-23.12 703.74-22.18 702.42-21.24 701.56-19.63 700.71-18.02 700.44-15.97L700.44-15.97ZM730.54 0.42L730.54 0.42Q727.61 0.42 725.89-1.31 724.17-3.03 724.17-6.81L724.17-6.81 724.17-22.85 719.99-22.85 719.99-26.42 724.17-26.42 724.17-32.79 728.98-32.79 728.98-26.42 734.72-26.42 734.72-22.85 728.98-22.85 728.98-6.81Q728.98-4.91 729.73-4 730.49-3.1 731.76-3.1L731.76-3.1Q732.62-3.1 733.67-3.26 734.72-3.42 735.3-3.54L735.3-3.54 735.96-0.39Q734.91-0.07 733.38 0.17 731.86 0.42 730.54 0.42Z" opacity="1" transform="matrix(1,0,0,1,0,0)" fill="#000000" class="slogan-text-1" data-fill-palette-color="secondary" id="text-1"></path></svg></g></svg></g></svg></g></svg></g><g><svg viewBox="0 0 182.64921499112148 182.64921499112148" height="182.64921499112148" width="182.64921499112148"><g><svg></svg></g><g id="icon-0"><svg viewBox="0 0 182.64921499112148 182.64921499112148" height="182.64921499112148" width="182.64921499112148"><g><path d="M0 91.325c0-50.437 40.887-91.325 91.325-91.325 50.437 0 91.325 40.887 91.324 91.325 0 50.437-40.887 91.325-91.324 91.324-50.437 0-91.325-40.887-91.325-91.324zM91.325 178.302c48.036 0 86.977-38.941 86.977-86.977 0-48.036-38.941-86.977-86.977-86.978-48.036 0-86.977 38.941-86.978 86.978 0 48.036 38.941 86.977 86.978 86.977z" data-fill-palette-color="accent" fill="#000000" stroke="transparent"></path></g><g transform="matrix(1,0,0,1,38.924786305743474,38.464314419391066)"><svg viewBox="0 0 104.79964237963453 105.72058615233935" height="105.72058615233935" width="104.79964237963453"><g><svg xmlns="http://www.w3.org/2000/svg" xmlns:xlink="http://www.w3.org/1999/xlink" version="1.1" x="0" y="0" viewBox="5.392 5 89.21600000000001 90" enable-background="new 0 0 100 100" xml:space="preserve" height="105.72058615233935" width="104.79964237963453" class="icon-cg-0" data-fill-palette-color="accent" id="cg-0"><path d="M73.591 21.324v-3.697c0-0.161-0.034-0.321-0.086-0.479l21.103-6.051L50.02 5 5.392 11.338l13.302 3.75v5.134c-0.626 0.132-1.097 0.668-1.141 1.323h-0.01c0 0.012 0.005 0.024 0.006 0.036-0.001 0.02-0.006 0.039-0.006 0.059h0.009v7.307h0.6v-6.686c0.052 0.022 0.107 0.041 0.164 0.059v7.226h0.6v-7.124c0.026 0.001 0.051 0.005 0.077 0.005 0.03 0 0.057-0.004 0.087-0.005v7.125h0.6v-7.229c0.057-0.019 0.112-0.038 0.164-0.061v6.69h0.6V21.64h0c0 0 0 0 0-0.001v-0.095c0 0 0 0 0 0h-0.01c-0.043-0.654-0.515-1.191-1.141-1.323v-4.965l7.161 2.019c-0.028 0.116-0.047 0.233-0.047 0.351v9.636c-4.846 4.993-7.851 11.781-7.892 19.263l-7.786 22.076h10.433V74.1h0.9v0.002h-0.9c0 5.826 4.739 10.565 10.565 10.565h5.85V95h15.541 13.297 15.54V66.144c5.104-5.241 7.91-12.138 7.91-19.463C89.866 35.443 83.186 25.742 73.591 21.324zM24.103 50.254c0-1.9 1.541-3.44 3.441-3.44 1.9 0 3.441 1.541 3.441 3.44 0 1.901-1.541 3.441-3.441 3.441C25.644 53.695 24.103 52.155 24.103 50.254zM80.42 65.138l-0.263 0.264V93.2H54.919V82.867h-7.65c-4.833 0-8.764-3.932-8.764-8.765h-0.9V74.1h0.9v-7.299h-9.689l7.042-19.967v-0.154c0-14.394 11.71-26.105 26.104-26.105 14.394 0 26.104 11.711 26.104 26.105C88.066 53.651 85.351 60.206 80.42 65.138zM47.003 50.254c0 1.901-1.541 3.441-3.441 3.441-1.9 0-3.441-1.541-3.441-3.441 0-1.9 1.541-3.44 3.441-3.44C45.462 46.814 47.003 48.354 47.003 50.254zM79.633 38.017c0.741 0.973 1.185 2.185 1.185 3.504 0 1.53-0.599 2.922-1.577 3.957-0.166 2.185-1.551 4.031-3.483 4.862v0.021c-2.357 1.373-3.767 3.716-4.193 6.528h-2.182l-1.216-0.003H66.09v-6.2c0-2.276-1.427-4.435-3.226-5.203-0.858-0.334-1.753-0.892-2.404-1.621-0.929 0.631-2.045 1.003-3.243 1.003-1.203 0-2.318-0.366-3.244-0.993-0.917 0.603-2.026 0.959-3.214 0.959-3.26 0-5.898-2.644-5.9-5.904 0-2.433 1.473-4.524 3.579-5.423 0.572-2.599 2.873-4.541 5.644-4.541 0.147 0 0.28 0.013 0.417 0.019 1.045-1.526 2.798-2.524 4.786-2.524 0.984 0 1.908 0.245 2.719 0.682 0.915-0.609 2.01-0.962 3.188-0.962 1.513 0 2.893 0.589 3.926 1.548 0.434-0.103 0.882-0.166 1.35-0.166 2.338 0 4.359 1.408 5.262 3.424 2.375 0.719 4.103 2.922 4.103 5.528C79.833 37.033 79.762 37.537 79.633 38.017z" fill="#000000" data-fill-palette-color="accent"></path></svg></g></svg></g></svg></g></svg></g></svg></g><defs></defs></svg><rect width="395.52" height="120.21604215455908" fill="none" stroke="none" visibility="hidden"></rect></g></svg></g></svg>